<?xml version="1.0" standalone="no"?>
<!DOCTYPE svg PUBLIC "-//W3C//DTD SVG 20010904//EN"
 "http://www.w3.org/TR/2001/REC-SVG-20010904/DTD/svg10.dtd">
<svg version="1.0" xmlns="http://www.w3.org/2000/svg"
 width="700.000000pt" height="700.000000pt" viewBox="0 0 700.000000 700.000000"
 preserveAspectRatio="xMidYMid meet">
<metadata>
Created by potrace 1.11, written by Peter Selinger 2001-2013
</metadata>
<g transform="translate(0.000000,700.000000) scale(0.100000,-0.100000)"
fill="#000000" stroke="none">
<path d="M0 3500 l0 -2750 743 0 743 0 -1 1038 c0 570 1 1047 3 1059 4 21 6
21 203 20 l199 -1 72 -105 c40 -58 127 -187 194 -286 68 -99 198 -291 291
-428 92 -136 173 -255 178 -265 6 -9 13 -19 16 -22 3 -3 62 -88 131 -190 264
-391 399 -590 401 -590 1 0 2 1165 2 2589 0 1713 -3 2593 -10 2600 -11 11
-177 46 -265 56 -30 4 -66 10 -80 13 -14 3 -654 8 -1422 9 l-1398 4 0 -2751z
m2352 1754 c182 -27 313 -88 419 -193 90 -91 146 -206 169 -356 11 -70 14
-256 5 -298 -2 -12 -7 -38 -9 -57 -34 -235 -199 -417 -446 -490 -78 -23 -83
-24 -190 -39 -77 -10 -810 -13 -811 -3 -3 22 -4 1429 -1 1440 6 18 740 15 864
-4z"/>
<path d="M3179 6243 c-1 -5 -2 -22 -3 -40 -2 -30 -1 -31 73 -53 138 -39 375
-144 422 -186 8 -8 19 -14 23 -14 21 0 195 -138 276 -220 239 -241 392 -573
438 -955 14 -118 5 -506 -12 -534 -2 -3 -7 -24 -10 -46 -4 -22 -11 -58 -17
-80 -6 -22 -12 -47 -14 -56 -9 -44 -62 -185 -102 -269 -115 -241 -286 -438
-511 -589 -75 -51 -232 -129 -322 -161 -36 -13 -67 -24 -68 -26 -2 -1 11 -22
28 -46 17 -24 97 -135 176 -248 80 -113 161 -228 182 -257 20 -28 43 -60 50
-70 7 -10 46 -65 87 -123 41 -58 79 -112 85 -120 6 -8 110 -154 231 -325 121
-170 243 -344 271 -385 29 -41 56 -79 60 -85 5 -5 58 -80 118 -165 60 -85 113
-159 117 -165 5 -5 50 -70 101 -142 l93 -133 1025 0 1024 0 0 559 0 560 -1107
0 c-610 0 -1136 0 -1170 1 l-62 0 -1 2133 c0 1172 0 2158 0 2190 l0 57 -740 0
c-407 0 -741 -3 -741 -7z"/>
<path d="M3175 863 l1 -108 73 -3 c40 -2 71 1 69 5 -22 46 -33 63 -40 63 -4 0
-8 6 -8 13 0 8 -9 22 -20 32 -11 10 -20 23 -20 29 0 6 -13 26 -28 44 l-27 33
0 -108z"/>
</g>
</svg>
