<?xml version="1.0" encoding="utf-8"?>
<!-- Generator: Adobe Illustrator 21.1.0, SVG Export Plug-In . SVG Version: 6.00 Build 0)  -->
<svg version="1.1" id="Layer_1" xmlns="http://www.w3.org/2000/svg" xmlns:xlink="http://www.w3.org/1999/xlink" x="0px" y="0px"
	 viewBox="0 0 128 128" style="enable-background:new 0 0 128 128;" xml:space="preserve">
<g>
	<path d="M0,13.69v100.62h27.17V75.57h7.38l23.52,34.61V15.15c-3.62-0.94-7.71-1.46-12.29-1.46H0z M54,45.05
		c0,8.55-4.7,13.25-15.09,13.25H27.17V31.63h11.74C49.3,31.63,54,36.33,54,45.05z"/>
	<path d="M85.24,93.85V13.69H58.07v1.46c15.78,4.11,22.76,16.34,22.76,29.56c0,13.42-7.21,24.32-19.62,28.17l29.35,41.42H128V93.85
		H85.24z"/>
	<polygon points="60.87,114.31 58.07,110.18 58.07,114.31 	"/>
</g>
</svg>
