<?xml version="1.0" encoding="utf-8"?>
<!-- Generator: Adobe Illustrator 21.1.0, SVG Export Plug-In . SVG Version: 6.00 Build 0)  -->
<svg version="1.1" id="Layer_1" xmlns="http://www.w3.org/2000/svg" xmlns:xlink="http://www.w3.org/1999/xlink" x="0px" y="0px"
	 viewBox="0 0 128 128" style="enable-background:new 0 0 128 128;" xml:space="preserve">
<path d="M124.3,40.5L67.1,2.1c-1.9-1.3-3.8-1.3-6.3,0L3.7,40.5c-1.9,1.3-2.5,3.1-2.5,5v37.7c0,1.9,0.6,3.8,2.5,4.4l57.1,38.3
	c1.9,1.3,3.8,1.3,6.3,0l57.1-38.3c1.3-1.3,2.5-2.5,2.5-4.4V45.5C126.8,43.6,126.2,41.7,124.3,40.5L124.3,40.5z M69.7,17.2l42.1,28.3
	L92.9,58L69.7,42.3V17.2z M58.3,17.2v25.1L35.1,58L16.3,45.5L58.3,17.2z M11.9,55.5l13.8,8.8l-13.8,8.8L11.9,55.5L11.9,55.5z
	 M58.3,111.4l-42-28.2l18.8-12.6l23.2,15.7V111.4z M64,76.9L45.2,64.3L64,51.8l18.8,12.6L64,76.9z M69.7,111.4V86.3l23.2-15.7
	l18.8,12.6L69.7,111.4z M116.1,73.1l-13.8-8.8l13.8-8.8V73.1L116.1,73.1z"/>
</svg>
