<?xml version="1.0" encoding="utf-8"?>
<!-- Generator: Adobe Illustrator 21.1.0, SVG Export Plug-In . SVG Version: 6.00 Build 0)  -->
<svg version="1.1" id="Layer_1" xmlns="http://www.w3.org/2000/svg" xmlns:xlink="http://www.w3.org/1999/xlink" x="0px" y="0px"
	 viewBox="0 0 128 128" style="enable-background:new 0 0 128 128;" xml:space="preserve">
<path d="M91.1,24.9c-6.4-4-12.3-5.5-18.3-9.5C69,12.9,63.9,6.9,59.6,1.8c-0.8,8.3-3.4,11.6-6.2,14c-6.1,4.8-9.9,6.2-15.2,9.1
	C33.7,27.2,9.6,41.6,9.6,72.5c0,30.9,26,53.7,54.9,53.7c28.9,0,53.9-21,53.9-52.7S94.9,27.3,91.1,24.9z M91.8,114.9
	c-0.6,0.6-6.1,4.4-12.6,5c-6.5,0.6-15.2,1-20.5-3.8c-0.8-0.8-0.6-2,0-2.5c0.6-0.5,1.1-0.8,1.8-0.8s0.6,0,1,0.2
	c2.4,1.9,6,3.5,13.7,3.5c7.7,0,13.1-2.2,15.5-4c1.1-0.8,1.6-0.1,1.7,0.4C92.4,113.4,92.6,114.1,91.8,114.9z M70.8,104
	c1.3-1.2,3.5-3.1,5.5-4c2-0.8,3.1-0.7,5-0.7c1.9,0,4,0.1,5.4,1.1c1.4,1,2.3,3.1,2.8,4.3s0,1.9-1,2.4c-0.8,0.5-1,0.2-1.8-1.3
	c-0.8-1.6-1.6-3.1-5.8-3.1s-5.5,1.4-7.6,3.1c-2,1.7-2.8,2.3-3.5,1.3C69.2,106.2,69.5,105.2,70.8,104z M102.6,105
	c-4.3-0.4-12.9-13.8-18.5-14c-6.9-0.2-22.1,14.5-33.9,14.5c-7.2,0-9.3-1.1-11.7-2.6c-3.6-2.5-5.4-6.4-5.3-11.6
	C33.3,81.8,42,73.1,53.1,73c14-0.1,23.7,13.9,30.8,13.8c6-0.1,17.5-11.9,23.1-11.9c6,0,7.7,6.2,7.7,9.9s-1.2,10.4-4.1,14.6
	C107.7,103.7,105.9,105.2,102.6,105z"/>
</svg>
