<?xml version="1.0" encoding="utf-8"?>
<!-- Generator: Adobe Illustrator 21.1.0, SVG Export Plug-In . SVG Version: 6.00 Build 0)  -->
<svg version="1.1" id="Layer_1" xmlns="http://www.w3.org/2000/svg" xmlns:xlink="http://www.w3.org/1999/xlink" x="0px" y="0px"
	 viewBox="0 0 128 128" style="enable-background:new 0 0 128 128;" xml:space="preserve">
<path d="M126.8,61.1c-1,7.2-1.9,14-3.9,21.2c-4.8,16.8-16.4,27.4-31.8,35.1c-9.6,4.3-19.7,7.2-29.8,6.3c-13.5-1-26.5-4.3-37.5-13
	c-0.5,0-0.5-0.5-1-1c4.3-1,9.1-1.9,13-3.4c6.7-2.9,13.5-5.8,19.7-9.1c4.3-2.4,8.7-3.9,14-4.8c9.1-1.4,14.9-6.7,18.8-14.9
	c0.5-1.4,1.9-2.9,2.9-3.9c10.1-8.7,19.7-17.3,27.4-28.4c1-1,1.4-2.4,2.4-3.9c0.5,1.4,1.4,2.4,1.4,3.9c1,4.3,1.9,9.1,2.4,13.5
	c0,1,0.5,1.4,1,2.4C126.8,60.6,126.8,60.6,126.8,61.1z"/>
<path d="M83.5,32.2c4.3-1.4,8.7-2.9,13.5-3.9c2.4-0.5,5.3-0.5,7.7-0.5c4.8,0.5,6.3,4.3,4.8,9.6c-1.9,6.3-5.8,10.6-9.6,14.9
	c-2.4,2.9-5.3,5.3-8.7,8.7c-0.5-7.7-2.9-13.5-7.2-18.3c-7.2-7.7-15.9-11.1-26-8.7c-9.6,2.4-17.8,8.2-20.7,18.3
	c-3.4,12-0.5,27,11.6,34.7c0.5,0.5,1.4,1,1.9,1.9c-7.7,2.9-14.9,6.7-23.1,7.2c-2.4,0-4.8,0.5-7.2-0.5c-1.4-0.5-2.9-2.9-3.4-4.3
	c-1-3.9,1-6.7,2.9-10.1c1.9-2.9,3.9-5.8,5.8-8.7c-6.7,5.8-11.6,13-16.4,21.2C4.6,83.2,0.7,73.1,1.2,62c0.5-15.9,5.3-29.8,16.8-40.9
	c7.2-7.2,16.4-12.5,26.5-14.4c6.7-1.4,14-2.9,20.7-2.4c14.9,1,29.8,4.3,41.4,14.9c1,1,1.9,1.4,2.9,2.4c-9.6,3.4-18.3,6.7-27,9.6
	C83,31.7,83,31.7,83.5,32.2z"/>
</svg>
