<?xml version="1.0" encoding="utf-8"?>
<!-- Generator: Adobe Illustrator 21.1.0, SVG Export Plug-In . SVG Version: 6.00 Build 0)  -->
<svg version="1.1" id="Layer_2" xmlns="http://www.w3.org/2000/svg" xmlns:xlink="http://www.w3.org/1999/xlink" x="0px" y="0px"
	 viewBox="0 0 128 128" style="enable-background:new 0 0 128 128;" xml:space="preserve">
<style type="text/css">
	.st0{fill:#0E1E25;}
</style>
<path class="st0" d="M93.7,44.4L93.7,44.4c-0.1,0-0.1,0-0.1-0.1c-0.1-0.1-0.1-0.2-0.1-0.3l2.6-15.8l12.1,12.1l-12.6,5.4
	c0,0-0.1,0-0.1,0h-0.1c0,0,0,0-0.1-0.1C94.9,45.2,94.3,44.7,93.7,44.4z M111.3,43.5l12.9,12.9c2.7,2.7,4,4,4.5,5.6
	c0.1,0.2,0.1,0.5,0.2,0.7L98,49.6c0,0,0,0-0.1,0c-0.1-0.1-0.3-0.1-0.3-0.2s0.1-0.2,0.3-0.2l0,0C98,49.1,111.3,43.5,111.3,43.5z
	 M128.4,66.8c-0.7,1.3-2,2.6-4.2,4.8l-14.6,14.6l-18.9-3.9l-0.1,0c-0.2,0-0.3-0.1-0.3-0.2c-0.1-1.6-0.9-3-2.2-4
	c-0.1-0.1-0.1-0.2,0-0.3c0,0,0,0,0,0l3.5-21.8l0-0.1c0-0.2,0.1-0.4,0.2-0.4c1.5-0.2,2.9-1,3.9-2.2c0,0,0.1-0.1,0.1-0.1
	c0.1-0.1,0.2,0,0.3,0L128.4,66.8L128.4,66.8z M106.3,89.5l-24,24l4.1-25.2l0,0c0,0,0-0.1,0-0.1c0-0.1,0.1-0.1,0.2-0.1l0,0
	c0.9-0.4,1.7-1,2.3-1.7c0.1-0.1,0.2-0.2,0.3-0.2c0,0,0.1,0,0.1,0L106.3,89.5L106.3,89.5z M77.2,118.6l-2.7,2.7L44.6,78.1
	c0,0,0,0,0,0c0-0.1-0.1-0.1-0.1-0.2c0-0.1,0-0.1,0.1-0.1l0,0c0.1-0.1,0.2-0.3,0.3-0.4l0.1-0.1l0,0c0-0.1,0.1-0.2,0.2-0.2
	c0.1,0,0.2,0,0.2,0l33.1,6.8c0.1,0,0.2,0.1,0.3,0.1c0,0,0.1,0.1,0.1,0.1c0.5,1.8,1.7,3.2,3.4,3.9c0.1,0,0.1,0.2,0,0.3
	c0,0,0,0.1-0.1,0.2C81.7,90.9,78.2,112.7,77.2,118.6z M71.6,124.3c-2,2-3.2,3-4.5,3.4c-1.3,0.4-2.7,0.4-4,0
	c-1.6-0.5-2.9-1.8-5.6-4.5l-30-30L35.3,81c0-0.1,0.1-0.1,0.1-0.2c0.1-0.1,0.2,0,0.3,0c1.8,0.5,3.7,0.4,5.5-0.3c0.1,0,0.2-0.1,0.3,0
	c0,0,0.1,0.1,0.1,0.1L71.6,124.3L71.6,124.3z M24.5,90.2l-6.9-6.9l13.6-5.8c0,0,0.1,0,0.1,0c0.1,0,0.2,0.1,0.2,0.2
	c0.1,0.2,0.3,0.4,0.4,0.6l0,0.1c0,0.1,0,0.1,0,0.2L24.5,90.2L24.5,90.2z M14.6,80.3l-8.7-8.7c-1.5-1.5-2.6-2.6-3.3-3.5l26.5,5.5
	c0,0,0.1,0,0.1,0c0.2,0,0.3,0.1,0.3,0.2c0,0.2-0.2,0.2-0.4,0.3l-0.1,0C29.1,74.2,14.6,80.3,14.6,80.3z M1.1,63.6
	c0-0.6,0.1-1.1,0.3-1.7c0.5-1.6,1.8-2.9,4.5-5.6L17,45.2c5.1,7.5,10.3,14.9,15.4,22.3c0.1,0.1,0.2,0.3,0.1,0.4
	c-0.5,0.5-1,1.1-1.3,1.8c0,0.1-0.1,0.2-0.2,0.2c0,0-0.1,0-0.1,0h0L1.1,63.6L1.1,63.6z M20,42.3l15-15c1.4,0.6,6.5,2.8,11.1,4.7
	c3.5,1.5,6.6,2.8,7.6,3.2c0.1,0,0.2,0.1,0.2,0.2c0,0.1,0,0.1,0,0.2c-0.5,2.2,0.2,4.5,1.7,6.1c0.1,0.1,0,0.2-0.1,0.4l0,0.1L40.4,65.7
	c0,0.1-0.1,0.1-0.1,0.2c-0.1,0.1-0.2,0-0.3,0c-0.6-0.2-1.2-0.2-1.8-0.2c-0.5,0-1.1,0.1-1.7,0.2h0c-0.1,0-0.1,0-0.2,0
	c-0.1,0-0.1-0.1-0.2-0.2C36.1,65.7,20,42.3,20,42.3z M38,24.2L57.4,4.8c2.7-2.7,4-4,5.6-4.5c1.3-0.4,2.7-0.4,4,0
	c1.6,0.5,2.9,1.8,5.6,4.5L76.9,9L63,30.4c0,0.1-0.1,0.1-0.1,0.2c-0.1,0.1-0.2,0-0.3,0c-2.2-0.7-4.6-0.2-6.4,1.2
	c-0.1,0.1-0.2,0-0.3,0C54.1,31,40,25.1,38,24.2z M79.8,12l12.7,12.7l-3.1,19v0.1c0,0,0,0.1,0,0.1c0,0.1-0.1,0.1-0.2,0.1
	c-0.7,0.2-1.3,0.5-1.8,0.9c0,0,0,0-0.1,0.1c0,0-0.1,0.1-0.1,0.1c0,0-0.1,0-0.1,0l-19.4-8.3l0,0c-0.1-0.1-0.3-0.1-0.3-0.2
	c-0.1-1.1-0.5-2.1-1-3.1c-0.1-0.2-0.2-0.3-0.1-0.5C66.2,33,79.8,12,79.8,12z M66.7,40.7l18.2,7.7c0.1,0,0.2,0.1,0.3,0.2
	c0,0.1,0,0.1,0,0.2c-0.1,0.3-0.1,0.6-0.1,0.9v0.5c0,0.1-0.1,0.2-0.3,0.2l0,0c-2.9,1.2-40.5,17.3-40.5,17.3s-0.1,0-0.2-0.1
	c-0.1-0.1,0-0.2,0.1-0.4c0,0,0,0,0-0.1l15-23.2l0,0c0.1-0.1,0.2-0.3,0.3-0.3l0.2,0c0.3,0,0.6,0.1,0.9,0.1c2.3,0,4.4-1.1,5.6-3
	c0-0.1,0.1-0.1,0.1-0.1C66.4,40.6,66.6,40.7,66.7,40.7z M45.8,71.4l41-17.5c0,0,0.1,0,0.1,0.1c0.2,0.2,0.4,0.4,0.6,0.5l0.1,0.1
	c0.1,0,0.2,0.1,0.2,0.2c0,0,0,0.1,0,0.1l-3.5,21.6l0,0.1c0,0.2,0,0.4-0.2,0.4c-1.9,0.1-3.6,1.2-4.6,2.8l0,0c0,0.1-0.1,0.2-0.2,0.2
	c-0.1,0-0.2,0-0.2,0l-32.7-6.7C46.3,73.1,45.8,71.4,45.8,71.4z"/>
</svg>
