<?xml version="1.0" encoding="utf-8"?>
<!-- Generator: Adobe Illustrator 21.1.0, SVG Export Plug-In . SVG Version: 6.00 Build 0)  -->
<svg version="1.1" id="Layer_1" xmlns="http://www.w3.org/2000/svg" xmlns:xlink="http://www.w3.org/1999/xlink" x="0px" y="0px"
	 viewBox="0 0 128 128" style="enable-background:new 0 0 128 128;" xml:space="preserve">
<path d="M58.5,13.9c0,1,0,1.8,0,2.6c0,34.3,0,68.5,0,102.8c0,0.6,0,1.3,0,1.9c0.2,1.5,1.2,2.4,2.6,2.3c1.5-0.1,2.3-0.9,2.4-2.3
	c0.1-0.6,0-1.1,0-1.7c0-19,0-38,0-56.9c0-0.7,0-1.4,0-2.3c0.9,0,1.5,0,2.1,0c4.2,0,8.4,0,12.6,0c14.9-0.1,25.9-12.7,25.6-26.4
	c-0.3-13.7-11.7-25-25.8-25c-16.6,0-33.2,0-49.8,0c-0.6,0-1.1,0-1.7,0c-1.4,0.2-2.1,1-2.2,2.4c-0.1,1.7,1,2.6,3,2.6
	c4,0,7.9,0,11.9,0c0.7,0,1.3,0.1,2.1,0.1c0,1,0,1.8,0,2.5c0,34.3,0,68.5,0,102.8c0,0.6,0,1.1,0,1.7c0.1,1.4,0.9,2.3,2.4,2.4
	c1.4,0.1,2.5-0.8,2.7-2.2c0.1-0.7,0.1-1.4,0.1-2c0-34.2,0-68.4,0-102.7c0-0.5-0.1-1.1,0-1.5c0.2-0.5,0.7-1.1,1-1.1
	C51.2,13.9,54.7,13.9,58.5,13.9z M63.7,54.5c0-0.5,0-1.1,0-1.7c0-12.6,0-25.3,0-37.9c0-1.7,0.5-2.1,2.1-2.1
	c4.8,0.1,9.7-0.2,14.5,0.2c10.3,0.7,18.6,9.4,19.1,19.7c0.5,10.8-6.9,20.4-17.4,21.7C76.1,55.1,70,54.5,63.7,54.5z"/>
</svg>
