<?xml version="1.0" encoding="utf-8"?>
<!-- Generator: Adobe Illustrator 21.1.0, SVG Export Plug-In . SVG Version: 6.00 Build 0)  -->
<svg version="1.1" id="slack" xmlns="http://www.w3.org/2000/svg" xmlns:xlink="http://www.w3.org/1999/xlink" x="0px" y="0px"
	 viewBox="0 0 128 128" style="enable-background:new 0 0 128 128;" xml:space="preserve">
<title>Artboard 7</title>
<g id="plain">
	<polygon points="53,59 58.4,74.4 75,69 69.6,53.6 	"/>
	<polygon points="53,59 58.4,74.4 75,69 69.6,53.6 	"/>
	<path d="M120.9,47.5C108.1,6.3,89.6-3.4,46.9,9S-5.7,39.3,7.1,80.5s31.3,50.8,74,38.5S133.7,88.7,120.9,47.5z M99.3,74.3l-8,2.6
		l2.8,8c1.1,3.2-0.6,6.7-3.8,7.8c-0.1,0-0.2,0.1-0.3,0.1c-0.7,0.2-1.5,0.3-2.2,0.3c-2.7,0-5-1.7-5.9-4.2l-2.8-8l-16.6,5.3l2.8,8
		c1.1,3.2-0.7,6.7-3.9,7.8c-0.1,0-0.1,0-0.2,0.1c-0.7,0.2-1.5,0.3-2.2,0.3c-2.7,0-5.1-1.7-6-4.2l-2.8-8l-8,2.6
		c-0.7,0.2-1.5,0.3-2.2,0.3c-2.7,0-5-1.7-5.9-4.2c-1.1-3.2,0.7-6.7,3.9-7.8c0.1,0,0.1,0,0.2-0.1l8-2.6l-5.3-15.5l-8,2.6
		c-0.7,0.2-1.5,0.3-2.2,0.3c-2.7,0-5-1.7-5.9-4.2c-1.1-3.2,0.7-6.7,3.9-7.8c0.1,0,0.1,0,0.2-0.1l8-2.6l-2.8-8
		c-1.1-3.2,0.6-6.7,3.8-7.8c0.1,0,0.2-0.1,0.2-0.1c3.3-1.1,6.9,0.6,8.2,3.9l2.8,8l16.6-5.4l-2.8-8c-1.1-3.2,0.7-6.7,3.9-7.8
		c0.1,0,0.1,0,0.2-0.1c3.3-1.1,7,0.6,8.2,3.9l2.8,8l8-2.6c3.3-1.1,6.9,0.6,8.2,3.9c1.1,3.2-0.7,6.7-3.9,7.8c-0.1,0-0.1,0-0.2,0.1
		l-8,2.6L87.2,65l8-2.6c3.3-1.1,6.9,0.6,8.2,3.9c1.1,3.2-0.6,6.7-3.8,7.8C99.5,74.2,99.4,74.2,99.3,74.3z"/>
</g>
</svg>
