<?xml version="1.0" encoding="utf-8"?>
<!-- Generator: Adobe Illustrator 21.1.0, SVG Export Plug-In . SVG Version: 6.00 Build 0)  -->
<svg version="1.1" id="Layer_1" xmlns="http://www.w3.org/2000/svg" xmlns:xlink="http://www.w3.org/1999/xlink" x="0px" y="0px"
	 viewBox="0 0 128 128" style="enable-background:new 0 0 128 128;" xml:space="preserve">
<path d="M38.6,67c-0.8,1.7-1.5,3.1-2.2,4.5c-3.3,7.2-6.1,14.6-7.5,22.4c-0.8,4.3-1.2,8.7-0.1,13.1c1,3.7,3,5.7,6.5,5.8
	c1.5,0.1,3.1-0.3,4.6-0.7c3.9-1.1,7.3-3.3,10.6-5.6c0.8-0.6,1.6-0.9,2.6-0.5c1.8,0.7,2.4,3,0.9,4.1c-5.4,4-11.1,7.5-18,7.7
	c-5.7,0.2-9.8-2.9-11.7-8.3c-1.4-4.1-1.4-8.2-0.9-12.4c1.5-12.5,6.3-23.8,12.1-34.8c0.5-0.9,0.5-1.7,0.2-2.7
	c-1.4-4.1-2.8-8.3-4.1-12.5c-0.2-0.8-0.5-1-1.4-0.8c-5.7,1.2-11.2,2.8-16.3,5.7c-1.9,1.2-3.8,2.6-5.4,4.2C6,58.8,5.9,61.8,8,64.9
	c1.8,2.7,4.4,4.5,7.2,6.2c0.9,0.5,1.8,1,2.6,1.5c1.3,0.7,1.7,2.2,1,3.4c-0.6,1.2-2.1,1.7-3.4,1c-3.8-2-7.4-4.3-10.3-7.6
	c-1.8-2-3.1-4.3-3.5-7c-0.5-3.3,0.4-6.3,2.4-9c2.1-2.7,4.8-4.7,7.8-6.3c5.3-2.9,11-4.6,16.8-5.9c0.4-0.1,0.8-0.2,1.3-0.3
	c-0.3-1.6-0.6-3.1-0.8-4.6c-1-6.2-1.4-12.4,0.1-18.6c0.6-2.4,1.5-4.7,3.2-6.7c3.4-4,7.7-4.9,12.5-3.7c4.8,1.2,8.8,3.8,12.5,6.9
	c1.1,0.9,1.1,2.4,0.2,3.5c-0.9,1-2.3,1.2-3.5,0.4c-1.9-1.3-3.7-2.7-5.7-3.8c-2.2-1.3-4.7-2.3-7.4-2.3c-2.2,0-3.9,0.9-5.2,2.7
	c-1.6,2.3-2.2,4.9-2.5,7.6c-0.6,5.7,0.1,11.3,1.2,16.9c0.1,0.6,0.3,0.8,1,0.7c4.5-0.5,9-0.9,13.5-1.3c1-0.1,1.6-0.4,2.2-1.2
	c5.9-7.4,12.3-14.3,19.9-20c4.2-3.2,8.7-6,13.8-7.5c3.2-1,6.5-1.3,9.7-0.2c4,1.4,6.3,4.5,7.5,8.5c1.2,4.2,1,8.5,0.5,12.8
	c-0.1,1.1-0.3,2.2-0.5,3.3c-0.3,1.5-1.4,2.3-2.9,2.1c-1.3-0.2-2.2-1.2-2.1-2.7c0.2-2.1,0.7-4.1,0.7-6.2c0-2.4,0-4.9-0.5-7.3
	c-1.1-4.9-4.5-6.9-9.5-5.7c-3.8,0.8-7.1,2.6-10.3,4.7c-6.6,4.3-12.2,9.7-17.4,15.6c-1,1.1-1.9,2.2-2.8,3.3c-0.1,0.1-0.1,0.2-0.1,0.5
	h1.4c13.4,0.1,26.6,1.7,39.5,5.4c6.1,1.8,12.1,4.1,17.5,7.5c2.9,1.8,5.6,3.9,7.7,6.6c4.3,5.6,3.9,11.8-1,16.8
	c-3.3,3.4-7.4,5.5-11.8,7.1c-1.2,0.5-2.6-0.2-3.1-1.4c-0.5-1.3,0-2.7,1.4-3.3c2-1,4.1-1.8,6-3c1.6-1,3.1-2.2,4.3-3.5
	c2.7-2.8,2.8-6,0.5-9.2c-1.7-2.4-4-4.1-6.4-5.7c-6.1-3.8-12.7-6.1-19.6-7.9c-7.1-1.9-14.4-3.2-21.8-3.7c-5.9-0.4-11.8-0.5-17.6-0.8
	c-0.8,0-1.4,0.2-1.9,0.9c-3.4,5.3-6.9,10.6-10.4,15.9C42,60.9,41.9,61.6,42,62c5.8,13.8,13.2,26.7,22.9,38.2
	c4.1,4.8,8.6,9.3,14,12.6c2.5,1.6,5.2,2.9,8.3,3.1c2.8,0.2,4.8-1,6.2-3.3c1.3-2.2,1.8-4.7,2.1-7.2c0.8-8.2-0.9-16.1-3-23.9
	c-2.2-8-5.3-15.7-8.9-23.1c-0.3-0.6-0.5-1.3-0.5-2c0.1-1.2,1-2,2.2-2.2c1-0.2,2.1,0.4,2.6,1.5c1.3,2.7,2.6,5.5,3.7,8.2
	c3.6,8.6,6.5,17.4,8,26.6c1.1,6.4,1.6,12.9,0.1,19.3c-0.3,1.4-0.8,2.9-1.4,4.2c-2.5,5.5-7.7,8-13.6,6.7c-4.8-1.1-8.9-3.6-12.7-6.6
	c-7-5.5-12.7-12.3-17.8-19.5c-5.8-8.2-10.8-17-14.9-26.2C39.1,67.9,38.9,67.6,38.6,67z M36.1,45l3.2,10.2c2.5-3.9,4.9-7.4,7.4-11.3
	C46.7,43.9,36.1,45,36.1,45z M64.5,71.3c-4,0-7.3-3.3-7.3-7.2c0-4.1,3.3-7.3,7.4-7.3c4,0,7.3,3.3,7.3,7.3
	C71.8,68,68.6,71.3,64.5,71.3z"/>
</svg>
