<svg version="1.1" id="Layer_1" xmlns="http://www.w3.org/2000/svg" x="0px" y="0px"
viewBox="0 0 128 128">
<g>
<path d="M99.2,20.7c-2.4,0-4.4,1-6,2.9c-1.6,1.9-2.4,4.8-2.4,8.5c0,4.5,0.8,7.5,2.3,9.2c1.5,1.7,3.5,2.6,5.9,2.6
c1.6,0,3-0.5,4.4-1.4c1.4-0.9,2.4-2.4,3-4.2c0.7-1.9,1-3.9,1-6.1c0-3.3-0.7-6.1-2.2-8.2C103.9,21.8,101.8,20.7,99.2,20.7z"/>
<path d="M8.8,1.3l10.1,112.9l45.1,12.6l45.2-12.6L119.2,1.3H8.8z M46.4,14.3h-4.9v-0.3c0-1-0.4-1.9-1.1-2.7
c-0.7-0.8-1.7-1.5-2.9-1.9c-1.2-0.5-2.5-0.7-4-0.7c-4,0-7,1.6-9.1,4.7c-2.1,3.1-3.1,7.4-3.1,12.9c0,5.5,1.1,9.8,3.2,13
c2.2,3.2,5.2,4.8,9.1,4.8c2.3,0,5-0.6,8-1.7V30.8h-9.2v-4.1h14.2v18.5c-4.4,2.1-8.5,3.1-12.5,3.1c-4.1,0-7.4-0.8-10-2.4
c-2.5-1.6-4.6-4-6.1-7c-1.5-3.1-2.3-7-2.3-11.8c0-5.4,0.7-9.6,2.1-12.6c1.4-3,3.5-5.3,6.1-7c2.6-1.7,5.7-2.6,9.3-2.6
c2.4,0,4.7,0.4,6.7,1.2c2,0.8,3.6,2,4.8,3.5c1.2,1.6,1.8,3.1,1.8,4.7V14.3z M70.1,22.1c-1.2-0.5-2.4-0.8-3.7-0.8
c-1.8,0-3.6,0.8-5.4,2.4s-2.6,4.5-2.6,8.6V47h-4.9V17.4h4.9v5.2c0.8-1.5,1.7-2.7,2.7-3.5c1-0.8,2-1.5,3.1-1.9
c1.1-0.4,2.2-0.6,3.3-0.6c1,0,1.9,0.1,2.6,0.4V22.1z M79.4,47h-4.9V17.4h4.9V47z M79.4,10.9h-4.9V5.9h4.9V10.9z M107.5,47v-5.1
c-1,1.9-2,3.3-2.9,4c-1,0.7-2,1.2-3.2,1.5c-1.2,0.3-2.4,0.4-3.5,0.4c-2.2,0-4.3-0.6-6.2-1.8c-1.9-1.2-3.3-3-4.4-5.5
c-1-2.4-1.6-5.2-1.6-8.2c0-4.5,1.1-8.2,3.3-11.2c2.2-3,5.2-4.5,9.1-4.5c1.3,0,2.5,0.2,3.6,0.5c1.1,0.4,2.1,0.9,3,1.6
c0.9,0.7,1.8,2,2.9,3.8V4.3h4.9V47H107.5z"/>
</g>
</svg>