<?xml version="1.0" encoding="utf-8"?>
<!-- Generator: Adobe Illustrator 21.1.0, SVG Export Plug-In . SVG Version: 6.00 Build 0)  -->
<svg version="1.1" id="Layer_1" xmlns="http://www.w3.org/2000/svg" xmlns:xlink="http://www.w3.org/1999/xlink" x="0px" y="0px"
	 viewBox="0 0 128 128" style="enable-background:new 0 0 128 128;" xml:space="preserve">
<path d="M7.3,51.7l-3.2,2.6c-0.5-1.9,0-3.6,0.5-5.3c1-3.4,2.9-6.4,4.9-9.2c0.8-1,1.3-2.1,1.3-3.4c-0.1-4.9,0.4-9.8,2.1-14.4
	c0.9-2.4,2-4.6,4-6.5c0.8,3.8,1.5,7.5,3.6,10.3c1.5-1.3,3-2.6,4.5-4c8.6-8.1,18.8-13.2,30.5-14.8C70,4.8,83.6,7.9,95.9,16.3
	c1.2,0.8,2.5,1.3,3.8,2c5.8,2.9,10.2,7.2,13,13.1c0.5,1,0.8,2,1.2,3l0.4-0.1l-1.6-9.5c6.3,8.9,8.4,18.8,8.9,29.2
	c1.2-1.7,1.2-3.6,1.8-5.5c0.2,1.4,0.5,2.7,0.6,4.1c0.6,5.4-0.5,10.6-1.4,15.8c-2.3,12.4-7.7,23.4-15.8,32.9
	c-9.2,10.9-20.7,18.1-35.1,19.8c-20.9,2.5-38.5-4.2-52.6-19.8C12.1,94,7.6,85.4,5.6,75.5C4.1,68,4.5,60.5,6.9,53.3l0.4-1.1
	C7.3,52.1,7.3,52,7.3,51.7z M101.9,41.8l0.4-0.3l4.5,3.4c-0.1-1,0-2.1-0.2-3.2c-0.8-4.6-3.6-8-7.1-10.9c-4.4-3.6-9.4-6.1-14.6-8.2
	c-0.5-0.2-1-0.4-1.5-0.7l0.1-0.5l7.3-0.4c-2.7-4.5-7.4-5.7-12.1-7l0.6-0.3c-9.6-3-19-3.2-28.6-0.8c-8.9,2.3-22.2,10.4-24.2,14.7
	l0.6-0.1c3.3-0.8,6.7-1,10.1-0.1c0.4,0.1,1-0.1,1.3-0.4c3.2-2.8,6.7-5,10.7-6.3c1.3-0.4,2.6-0.7,3.9-1c-0.1,0.4-0.3,0.6-0.5,0.8
	c-4.2,2.9-7.1,6.7-7.9,11.9c0,0.3,0,0.7,0.2,0.9c1.9,1.8,3.7,3.5,5.7,5.2c0.7,0.6,1.6,0.9,2.5,1.1c1.7,0.3,3.4,0.3,5.2,0.4
	c1.1,0.1,1.8,0.8,1.4,1.7c-0.6,1.3-1.2,2.5-2.5,3.3c-2.5,1.6-4.7,3.6-7.1,5.3c-0.6,0.4-0.6,0.8-0.3,1.5c0.6,1.2,1.1,2.4,1.5,3.7
	c0.5,1.6,0.6,3.3,0.2,5c-1.3-0.3-2.6-0.6-3.8-0.8c-1.2-0.2-2.5-0.4-3.7-0.7c-1.6-0.3-2.9,0.3-3.7,1.5c-0.9,1.5-0.9,3,0,4.3
	c2,2.6,4.3,4.9,7,6.7c2.2,1.5,4.7,2.4,7.4,1.8c1.9-0.4,3.7-1.2,5.4-2.1c5.1-2.7,10.9-1.8,14.4,2.4c0.6,0.8,1,1.6,0.5,2.5
	c-0.5,0.8-1.4,1-2.4,0.8c-1-0.3-2-0.1-2.9,0.5c-2.5,1.6-4.9,3.4-7.5,4.7c-4.2,2.2-8.8,2.9-13.5,2.8c-0.5,0-1,0-1.6,0
	c0.2,0.3,0.3,0.4,0.4,0.5c3.4,3.3,7.3,5.9,11.9,7.4c5,1.6,10.1,2.3,15.3,0.9c5.8-1.6,10.4-5.1,14.2-9.6c1.6-1.8,3-3.7,4.5-5.6
	l0.4,0.1l-1.3,9c7.1-8.7,7.4-18.7,6.4-29.3c2.1,2.3,2.7,5,3.9,7.7C105,57.7,103.8,49.8,101.9,41.8z"/>
</svg>
