<?xml version="1.0" encoding="utf-8"?>
<!-- Generator: Adobe Illustrator 21.1.0, SVG Export Plug-In . SVG Version: 6.00 Build 0)  -->
<svg version="1.1" id="Layer_1" xmlns="http://www.w3.org/2000/svg" xmlns:xlink="http://www.w3.org/1999/xlink" x="0px" y="0px"
	 viewBox="0 0 128 128" style="enable-background:new 0 0 128 128;" xml:space="preserve">
<g>
	<path d="M63.6,58.1c-6.1,0-9.4,5.7-9.4,12.6S57.7,83,63.6,83c6,0,9.3-5.5,9.3-12.6C72.9,64.1,69.8,58.1,63.6,58.1z"/>
	<path d="M29.9,72h-3.1v11c0.8,0.1,1.9,0.2,3.2,0.2c4,0,7.5-1.5,7.5-5.7C37.5,73.6,34.1,72,29.9,72z"/>
	<path d="M36.6,62.6c0-3.1-2.4-4.6-6.3-4.6c-1.8,0-2.8,0.1-3.5,0.2v9.2H30C34.2,67.5,36.6,65.5,36.6,62.6z"/>
	<path d="M8.8,1.3l10.1,112.9L64,126.8l45.2-12.6l10-112.9C119.2,1.3,8.8,1.3,8.8,1.3z M64.1,12.7h19.6v5.1H70.3v8.7H83v5H70.3v9.9
		h14.2v5.1H64.1V12.7z M39.5,12.7h6.2v28.6h13.9v5.2h-20L39.5,12.7L39.5,12.7z M20.2,46.4H14V12.7h19.5v5.1H20.2v9.3h12.4v5.1H20.2
		V46.4z M40.8,84.6c-2.4,2.1-6.4,3.1-12.5,3.1c-3.4,0-6-0.2-7.6-0.4V54.2c2-0.4,5.5-0.7,9-0.7c4.5,0,7.4,0.6,9.7,2.2
		c2.1,1.2,3.5,3.5,3.5,6.3c0,3.1-2,6-5.6,7.3v0.1c3.6,0.9,6.8,3.7,6.8,8.4C44,80.7,42.7,83,40.8,84.6z M63.3,88
		c-9.5,0-15.5-7.2-15.5-17.2c0-10.4,6.5-17.7,16-17.7c9.9,0,15.7,7.5,15.7,17.1C79.4,81.5,72.6,88,63.3,88z M101.3,87.4l-3.7-6.7
		c-1.5-2.6-2.4-4.4-3.4-6.4h-0.1c-0.8,2-1.7,3.8-3.1,6.4l-3.3,6.7h-7.1l10-17.1L81,53.6h7l3.7,7c1.1,2.1,1.9,3.8,2.8,5.7h0.1
		c0.9-2.1,1.6-3.6,2.7-5.7l3.6-7h7.1l-9.9,16.5l10.3,17.3C108.4,87.4,101.3,87.4,101.3,87.4z M107.9,46.4l-3.7-6.7
		c-1.5-2.6-2.4-4.4-3.4-6.4h-0.1c-0.8,2-1.7,3.8-3.1,6.4l-3.3,6.7h-7.1l10-17.1l-9.6-16.7h7l3.7,7c1.1,2.1,1.9,3.8,2.8,5.7h0.1
		c0.9-2.1,1.6-3.6,2.7-5.7l3.6-7h7.1l-9.9,16.5L115,46.4H107.9z"/>
</g>
</svg>
