<?xml version="1.0" encoding="utf-8"?>
<!-- Generator: Adobe Illustrator 21.1.0, SVG Export Plug-In . SVG Version: 6.00 Build 0)  -->
<svg version="1.1" id="Layer_1" xmlns="http://www.w3.org/2000/svg" xmlns:xlink="http://www.w3.org/1999/xlink" x="0px" y="0px"
	 viewBox="0 0 128 128" style="enable-background:new 0 0 128 128;" xml:space="preserve">
<style type="text/css">
	.st0{fill:none;stroke:#999999;stroke-width:3;stroke-miterlimit:10;}
	.st1{fill:none;stroke:#8BBC04;stroke-width:3;stroke-miterlimit:10;}
	.st2{fill:none;stroke:#8BBC04;stroke-width:2;stroke-miterlimit:10;}
	.st3{fill:#88CE02;}
	.st4{fill:#EFEFEF;}
	.st5{opacity:0.3;enable-background:new    ;}
	.st6{fill:#88CE02;stroke:#000000;stroke-width:3.6298;stroke-linejoin:round;stroke-miterlimit:10;}
</style>
<g id="lines">
	<path class="st0" d="M69.7,124.5"/>
	<path class="st0" d="M57.9,122.9c0,0.1,0,0.1,0,0.2"/>
	<path class="st0" d="M15.3,57.9"/>
	<path class="st0" d="M21.1,41.4"/>
	<path class="st0" d="M59,25.9"/>
	<path class="st0" d="M96.9,118"/>
	<path class="st0" d="M81.5,123.5"/>
	<path class="st0" d="M96.9,118"/>
	<path class="st0" d="M87.8,4.7c-0.6-0.5-2.8-1.3-5.1-1.4c-2.3-0.1-5.4,0.8-6.3,1.4s-1.2,6.1-0.4,9.5s1,4.9,2.4,6
		c1.4,1.1,5.5,0.9,6.2,0.6s2.5-1.1,3.1-3.8C88.4,14.2,89.6,6.2,87.8,4.7z"/>
	<path class="st0" d="M88.3,24.1c0,0-0.1-3.4-0.5-7.1"/>
	<path class="st0" d="M76.5,16.1c-0.4,2.7-1,5.8-1.1,6.3"/>
	<path class="st1" d="M88.3,24.1c0.6-0.4,1.5-0.9,2.4-0.7c0.9,0.2,2.2,0,4.3,2.7c0,0,1.5-0.7,2.5,1.2c0,0,2.3-0.9,2.5,1.6L96.8,29
		c0,0-1.5-1.3-2.6-1.8c-1-0.5-2.4-1-3.2-1.2c-0.8-0.2-4.7,1.1-6,1.1c-1.3,0-5.4-1.3-6.6-1.4c-1.2-0.1-5.2,0.4-7.5,0.1
		c-2.3-0.3-3.2-1.2-6.1-1.4c-0.6,0-1.2,0-1.2,0s1.7-2.1,3.2-2s2,0.7,2,0.7s1.2-3.2,6.5-0.7c-0.1,0.5,5.5,2.8,7.9,3.1
		C85.7,25.8,86.1,25.5,88.3,24.1z"/>
	<path class="st0" d="M95.6,47.8c0.7,0.9,2.6,2,2.6,2c-0.4,0.5-0.3,3.2,0,4c0.3,0.8,2,3,2,3s-1.5,0.4-2.4,0.3
		c-0.9-0.1-1.6,0.4-2.4,0.9s-0.9,1.6-0.9,1.6c0.1,1.4,0.5,4.4,0.5,4.4c0.9,0.9,2.8,1.5,4.5,1.9c1.7,0.4,2.3-0.6,3.5-1.9
		c1.2-1.3,1.8-4.7,1.8-4.7c2.7-3.1,3.4-4.7,3.3-8.4c-0.1-3.7-2.5-3.7-2.5-3.7l-2,0.8c0.5-0.3,1.9-0.8,2.2-1.4c1.5-4.7-1.8-7-1.8-7
		c1.5-4,0.7-6.1-0.2-7.8c-1-1.9-3.3-2.7-3.8-2.8c-0.6-0.1-1.1-0.1-3.2,0.2"/>
	<path class="st0" d="M98,38.2c0.1,1.6,0.4,4.2-1.3,7.5c-1.7,3.2-2.1,2.7-2.5,10.6c0,0-6.3,1-10.2,0.5c-3.9-0.5-10.6-3.4-10.6-3.4
		l-1-5.5c0,0-3.7-1.8-6.4-5.8"/>
	<path class="st1" d="M21.6,54.1c0.7,1.1,3.8,2.1,4.6,8.4s1,10.2,4,14.1c3,3.9,7,4.7,9.6,5.2c2.6,0.5,9.2-0.7,13.9,1.3
		c4.7,2,5.8,4,6.9,5.3c1.7,2,4.2,2.7,4.2,2.7"/>
	<line class="st0" x1="73.4" y1="53.4" x2="73.1" y2="56.9"/>
	<path class="st0" d="M70.2,64.9c0,0-1.3,4.2-1.9,7.5c-0.6,3.3-1.7,8.6-0.2,14.3c0,0-2.8,2.6-4.4,7.5c-1.5,4.9-1.5,12.6-1.5,14.6
		c0,2-0.5,5.6-0.5,5.6s3.8,1,7,0.7c0,0,0.2-4,0.9-6.8s3.1-5.3,3.9-8.5c0.8-3.2,0.8-7.2,0.8-7.2s1.4-0.6,2-3.5c0,0,4.2-1.8,6.1-7.1
		c1.9-5.3,2.6-11.7,3.4-13.7"/>
	<path class="st0" d="M82.3,81.8c0,0,2,4.3,2.2,5.8c0.2,1.5,0,2.8,0,2.8s-3.6,0.7-4.7,5.1"/>
	<path class="st0" d="M92.7,95.6c0,0,0.2-1.2,1-3.6c0.8-2.4,0.3-5,0.3-5c2.7-3.7,2.6-6.7,2.6-11.5c-0.1-4.8-0.6-5.9-1.3-10.1
		c-0.8-4.2-1-9-1-9"/>
	<path class="st0" d="M62.1,114.4c-0.3,0.6-1.3,1.6-1.6,2.6c-0.3,1-0.4,1.7-0.6,2.4s-2.2,2-2.1,3.5c0.1,1.5,0.3,2.7,2.1,3.6
		s4.8,1.3,6.6,1c1.8-0.3,3.1-0.8,3.2-1.3c0.1-0.6,0.3-1.2-0.7-4.1c-1-2.9,0.3-1.8,0.3-3.8c0-2-0.8-2.6-0.9-3.3"/>
	<path class="st2" d="M78.6,99.1c3.7,0.6,8.4,1.3,14.7-0.5"/>
	<path class="st2" d="M79,100.9c1.6,0.3,8.2,1.3,14-0.4"/>
	<path class="st2" d="M79.6,103c1.5,0.3,7,0.9,13.2-0.4"/>
	<path class="st2" d="M80.2,104.8c1,0.1,7.3,0.7,12.3-0.6"/>
	<path class="st2" d="M81.2,118.4c1,0.5,2.7,1.2,4.9,1.2c0,0-0.5,2.2,0.6,4.5"/>
	<path class="st2" d="M100.1,119.8c0.7,0.8,2,2,2.1,3.1c0.1,1.1-1.2,1.9-1.8,2.3"/>
	<path class="st1" d="M59,25.9c-5,1.7-15.9,4.3-29.1,10.8s-17,10.3-20,13.4c-3,3.1-6.2,8.3-7.3,12.2c-1.2,3.9-1.3,4.8-1.2,5.6
		c0.1,0.8,0.6,0.8,2.1-0.6c1.5-1.4,8.5-7.8,17.2-12.7S48.1,41,50.1,40"/>
	<path class="st1" d="M79.5,95.5c1.9,0.7,3.4,0.9,6.7,0.9c3.3,0,5.2-0.3,5.8-0.6c0.6-0.3,1.8-0.2,1.6,1c-0.2,1.2-1.1,6.9-1.3,9.6
		c-0.2,2.6-0.2,7.9,0.2,9c0.3,1.2,4.3,2.6,5.5,3.3c1.2,0.7,3.7,2,5.6,2.6c1.9,0.6,3,0.9,3.2,1.7c0.1,0.4-0.5,2.1-3.7,2.3
		c-3.1,0.2-5.4-0.6-9.7-0.9c-4.3-0.3-5.3-0.1-8.8-0.3c-3.5-0.3-4.1-0.9-4.3-2.3c-0.2-1.5,0.9-2.9,1.5-4.9s0.6-5.5,0-7.9
		s-1.8-4-2.4-6.6C78.8,99.8,77.5,94.8,79.5,95.5z"/>
	<path class="st0" d="M85,27.2c-1.3,0-5.4-1.3-6.6-1.4s-5.2,0.4-7.5,0.1c-2.3-0.3-3.2-1.2-6.1-1.4c-0.6,0-1.2,0-1.2,0
		c-2.6,0.4-7,0.9-8,7.4c0,0-3.8-0.2-4.3,4.4c-0.5,4.6-2.9,4.5-3.3,5.8c-0.5,1.3,0.2,6.6,4.4,9.2s8.7,4.9,10,5.7
		c1.3,0.8,2.4,1.7,2.4,1.7s-0.7,2.4,2.3,4.5c0,0,0,1.5,2.1,1.6c2.1,0.1,2.8-1,3.4-1.6c0.7-0.6,2.9-2.3,3-2.9c0.1-0.6,0-1.5-1.5-2.6
		s-1-1.7-5.5-2.3c0,0-2.6-2.5-3.4-4.6c-0.8-2-1.9-6.9-5.5-8.7l1,0.6c0,0,0.1,0.1,0.1,0.1l1.1,1.1c0,0,3.1-0.4,4.1-1.9
		c1-1.5,2.6-3.2,2.8-6.9l0.7-1.1c0,0,4.5,3.7,7.3,3.5s6.8-1.6,9-1.6c2.2,0,6.2-0.3,9.9,1.5c3.8,1.7,3.8,1.1,4,0.8
		c0.2-0.3,0.8-2.2,0.4-3.9c-0.5-1.7-3.3-5.2-3.3-5.2s-1.5-1.3-2.6-1.8c-1-0.5-2.4-1-3.2-1.2C90.3,25.9,86.4,27.2,85,27.2"/>
</g>
<g id="logo">
	<path d="M17.6,57.6c-3.6,1.7-13.4,9.5-15.3,11.8s-2.5-1.3-0.5-7.3c1.6-4.8,5.6-11.4,12.4-17c3.9-3.3,12.7-7.9,18-10.6
		c1.1-0.5,15-6.5,27.5-9.4c1.1-0.3-1.3,1.8-1.7,3c-1.9,5.4-39.3,28.9-39.3,28.9L17.6,57.6z"/>
	<path d="M70.2,123.5c0.7,3.9,0.1,4.2-3.9,4.6s-7-1-8.1-2c-1.1-1-1.3-3.3-0.2-5.3c0.7-1.3,1.3-1.8,1.7-3.3c0.4-1.5,0.7-1.9,1-2.4
		c0.3-0.5,0.3-1,0.5-4.5c0.1-3.5,0-10.2,0.4-12.9c0.4-2.9,12.8,1.3,12.8,1.3s-2.9,7.3-3.7,9.1c-0.8,1.8-0.7,5.3-0.7,6
		c0,0.7-0.3,2.2-0.5,2.3c-0.2,0.1,0.8,1.9,0.3,3C69.2,120.4,70.1,123,70.2,123.5z"/>
	<path d="M74.9,13.5c-0.4-2.8,0-8.1,0.6-9c1.8-2.5,11.3-2.8,13.3,0.2C89.7,6,89.6,9,89.5,11c-0.2,1.9-0.6,6.1-0.7,7.5
		c-0.1,1-10.5,2.6-12.8-0.1C75.3,17.5,74.9,13.5,74.9,13.5z"/>
	<path d="M96.1,116.6c4.4,3.1,7.8,3.8,10,4.9c2.2,1.2,1.6,3.4-2.1,4c-3,0.5-7.8-0.6-10.9-0.6c-3.1,0-10.2,0.4-12.1-0.9
		c-2.2-1.5-1.2-4.3-1.2-4.3c0.6-1.6,2-5.1,1.6-8c-0.5-2.9-1-4.5-2.1-7.1c-1.1-2.6-1.9-9.2-0.8-9.6c1-0.4,0.8,0,2,0.3
		c1.3,0.4,2.8,0.7,5.6,0.7s5.9-0.5,7-0.7c1.1-0.2,2-0.4,1.6,1.8c-0.4,2.2-1.4,6.4-1.5,9.6c-0.1,3.2-0.1,7,0.2,7.6
		C93.5,115.2,94.9,115.8,96.1,116.6z"/>
	<g>
		<g>
			<path class="st3" d="M80.7,20.7c-7.9,6.8-23.2,8.7-46,17.5c-5.8,2.2-21.4,9-25.1,15.9c12.6-7.3,17.3,2.7,18.3,13
				c0.9,9.6,5.8,14.7,18.1,14.4c12.8-0.3,16.6,7.1,20.1,15.8C72.9,64,83.9,57.6,91,51.8C106,39.7,87.6,18.2,80.7,20.7z"/>
			<path class="st3" d="M80.7,20.7c-19,6.6-37.8,8.2-59.9,21.9C15.5,45.8,4.4,53.2,2.3,67.2c8.1-9,26.7-20.1,49.5-27.3
				c11.5-3.6,19.9-6,30.2-9.9C81.3,25.4,81.3,23.6,80.7,20.7z"/>
		</g>
		<path d="M104.9,60.1c0,0-1.4,4.7-4.1,6.2c0,0-2,0.7-6.1-1.5c-1.2-0.6-2-2.9-2-3.6c0.1-1.7,1.1-2.5,1.1-2.5s1.1-1.9,2.5-1.8
			c1.4,0.1,3.7,0.3,4.4-0.4C101.6,55.8,105.1,57.8,104.9,60.1z"/>
		<path d="M75.6,14.9c0,0-0.3,3.7-0.8,6c-0.1,0.4-2.2,0.6-3.8,1.3c3,8.6,21.3,8.5,23.6,4.3c-1.1-0.8-3.5-2-4.6-2.5
			c-1.1-0.5-1-0.3-1.1-2.4c-0.1-2-0.2-5.7-0.3-6.8C88.4,13.9,77.3,13.9,75.6,14.9z"/>
		<path class="st4" d="M76.3,14.9c0,0,0,2.1-0.2,4.1c-0.1,0.9-0.2,1.5-0.3,2.2c-0.1,0.4,2.5,2.1,3.2,6c3.5,7.7,11.4,3.9,14.7,0.2
			c-1.2-0.8-3-1.9-5.2-2.8c-1.1-0.5-0.6-1.4-0.7-3.4c-0.1-2-0.3-5-0.5-6C87.2,14.2,78,13.9,76.3,14.9z"/>
		<path d="M75.6,14.9c0,0-0.1,1.3-0.3,2.8c1,1,2.2,2.2,3.1,3c0.7,0.6,2.3,0.5,3.7,0.5c1.3,0,2.5,0.1,3-0.1c1.2-0.6,2.8-2,3.7-3.1
			c-0.1-1.3-0.1-2.5-0.2-3.1C88.4,13.9,77.3,13.9,75.6,14.9z"/>
		<path d="M82.2,20.4c-0.8,0-1.9-0.1-2.7-0.2c-0.4-0.1-0.7-0.3-1-0.5c-0.5-0.3-1-0.8-1.6-1.2c-1.1-0.8-1.2-1.4-1.2-1.6
			c0.5-4.6-0.2-8.4-0.2-8.4S75,6.5,77.7,6s4.4-0.5,4.4-0.5s1.7,0,4.4,0.5c2.7,0.5,2.2,2.5,2.2,2.5s-0.7,3.8-0.2,8.4
			c0,0.2-0.1,0.8-1.2,1.6c-1,0.8-1.8,1.5-2.6,1.7C84,20.3,83,20.4,82.2,20.4z"/>
		<path d="M82.2,3.7c-4.8,0-5.7,1.3-7,2.8c-0.3,0.3,0,2.5,0.4,7.1h0.7c0,0-0.4-1.3-0.4-2.8c0.1-1.5,0.4-1.4,0.1-1.8
			c-0.3-0.4-0.8-1.1,0.4-1.9c1.3-0.7,3.3,0.6,5.7,0.6c2.4-0.1,4.5-1.4,5.8-0.6c1.3,0.7,0.7,1.4,0.4,1.9c-0.3,0.4,0.1,0.3,0.1,1.8
			c0.1,1.5-0.4,2.8-0.4,2.8h0.7c0.4-4.6,0.7-6.6,0.5-7C88.1,5,86.9,3.7,82.2,3.7z"/>
		<path d="M105,60.4c0,0-1.3,4.4-4,5.9c-0.6-0.3-0.5-0.7-1-1.4c-0.2-0.2-0.6-0.3-0.8-0.6c-0.2-0.2-0.2-0.6-0.5-0.9
			c-0.3-0.3-0.5-0.1-0.8-0.3c-0.3-0.3-0.3-0.6-0.6-0.9c-0.2-0.1-0.7-0.2-0.9-0.4c-0.3-0.3-3.5-1-3.4-1.7c0.3-1.1,0.9-1.9,0.9-1.9
			s1.4-2,2.7-1.9c1.4,0.1,2.6,0.4,3.4-0.3C100.7,55.4,105.1,58.1,105,60.4z"/>
		<path d="M95.6,28.6c0,0,4.6-1.1,7.6,1.9c3.1,3,2.9,6.8,2,9.1c0.8,0.9,2.2,3.5,1.1,6.7c4.8,4,2.7,10.2-1.6,14.3c0,0-1-3.7-5-4
			c0.1-1.4-3.7-2.6-2-6.4c-2.8-0.7-2.7-2.5-3.1-4.8C94.3,43,95.6,28.6,95.6,28.6z"/>
		<path class="st4" d="M94,30.6c0,0,5.3-2.6,8.3,0.4c3.1,3,2.2,6.3,1.3,8.7c0.8,0.9,2.7,3.6,1.5,6.8c-0.3,0.7-1.8,0.7-2.9,2.6
			c2.9-1.7,4.7-1.3,5.4,0.9c1,3.3-1.2,7.2-3.2,9.3c0-0.1-0.1-0.1-0.1-0.2c-0.3,1.1-0.7,3.2-2.8,5.5c-1.1,1.1-1.9,1-3.2,0.7
			c-1.4-0.4-2-1-4-2.1c-1.2-0.6-0.5-1.4-0.5-2.1c0-0.1,0.1-0.4,0.3-0.6c0.1-0.4,0.6-0.9,1.2-1.6c0,0,0.9-1.3,2.3-1.2
			c1.4,0,2.8-0.2,3.2-0.6v0c0-2.5-2.9-2.6-1.9-6.9c0-0.2,0.4-0.6,1.6-0.7c-1.7-0.3-2.5-0.5-3.8-1.6c-0.8-0.8-1.5-1.8-1.8-3.1
			C94.6,42.3,94,30.6,94,30.6z"/>
		<path d="M78.8,26c-0.4-0.6-2.6-3.4-6.9-4.6c-1.2-0.3-2,0.6-3.2,1.3c-0.3-0.2-1.9-0.9-2.8-0.4c-0.8,0.5-1.4,1-2.3,1.4
			c-0.5-0.2-1.1-0.5-2-0.1c-0.9,0.3-2.9,1.2-4.2,3.1c-0.9,3.1,15.2,0.8,15.2,0.8L78.8,26z"/>
		<path class="st3" d="M78.9,26c-2.3-0.8-1.9-3.5-7.1-3.9c-1-0.1-1.6,0.7-2.4,1.3c0.4,0.4,0.7,0.9,0.9,1.5c-0.6-0.8-1.8-1.7-2.9-1.9
			c-1-0.2-1.8,0.6-3,1.2c0.2,0.2,0.5,0.6,0.7,1c-1-0.7-1.7-0.8-3.1-0.4c-0.9,0.3-2.7,1.1-4.1,3c-0.9,3.1,14.5-0.4,14.5-0.4L78.9,26z
			"/>
		<path d="M92.4,27.2c0,0,0-0.8,0-1.5c0-0.2-0.6-0.5-0.6-0.7l-0.1-0.2c0,0,1.1-0.6,2-0.3c0.9,0.3,1.4,1.5,1.4,1.5
			c1.6-0.6,1.8,0.1,2.6,1c1.7-0.4,1.9,0.3,3,1.9c0,0-1.3-0.2-3.8,0.2C94.4,29.5,92.4,27.1,92.4,27.2z"/>
		<path class="st3" d="M92.1,26.8c0,0,0.4-0.4,0.3-0.5c0.8-0.4,1.8-0.9,2.4,0.4c1.6-0.6,1.9,0.2,2.7,1.1c2-0.9,2.1,0.2,2.3,0.7
			c-0.6,0-1.6,0-2.8,0.2C94.4,29.2,92.1,26.7,92.1,26.8z"/>
		<path d="M67.6,25c0,0,4.1,1.5,7.6,1.2c3.5-0.3,9.4-0.5,12.6,1.3c0,0,3.3-1.1,6.3-0.4c3,0.8,8.6,6,6.9,11.4
			c-0.1,0.4-1.1,0.9-2.1,1.3c0,0,0.6,2.5-0.4,4.4c-1,1.9-3.3,5.7-3.3,10.9l0,0c-0.1,0.8-0.2,2.7-0.3,3.5c-5.6-0.2-14.3-2.3-22.7-2.1
			c0.1-0.9,0.1-1.5,0.3-2.5h0.2c-0.4-2.3-0.6-3.6-1-5.4c-2.8-1.8-5.6-3.7-8.1-7.6C60.9,37.4,67.6,25,67.6,25z"/>
		<path d="M95.5,63.9c0,0,4.5,15.9-0.8,22.7c0,0,0.8,3.1-1,6.4c-0.3,1.4-0.7,2.7-0.9,4.2c-0.9,6-2.5,8.5-2.9,18l-4.3-0.1
			c0,0-0.5-6.9-2-10.6c-0.8-2.1-4.3-4.9-4.1-7.7c0.1-2.2,0.6-4,4.2-6.8c0.3-4.2-3.9-8.1-3.3-23.7L95.5,63.9z"/>
		<path class="st4" d="M94.1,63.2c1.2,7.3,3.8,18.2-1,23.5c0.2,1,0.3,2.4,0,4.1c-0.1,0.9-0.4,1.8-0.8,2.8c-0.7,1.7-1,4.3-1.2,5.7
			c-0.9,6-0.9,6.2-1.4,15.8l-4.3-0.1c0,0-0.5-6.9-2-10.6c-0.8-2.1-2.6-3.9-2.8-6.7c-0.1-2.2,1.4-6.4,5-6.4c-0.2-8.7-4.3-7-5.3-25.1
			L94.1,63.2z"/>
		<path class="st4" d="M67.6,25c0,0,1.6,0.5,3.3,0.7c1.7,0.2,3.6,0,5.3-0.1c3.5-0.3,8.4-0.7,11.6,1.2c0,0,1.8-0.6,3.7-0.4
			c0.9,0.1,1.7,0.8,2.7,1.1c3.1,0.8,6.2,6,4.8,10.8c-0.1,0.4-1.1,0-2.3,0.3c0.2,1,0.4,3.3-0.8,5.8c-1.2,2.4-2.8,5.6-2.5,11.7
			c-7.5-0.3-10.9-0.8-18.4-1.2c-0.6-2.6-1-5.3-1.2-6.7c1-0.5,1.6-0.9,2.4-1.8c-2.2,0.3-3,0.2-4.3-0.5c-1.3-0.7-3.6-3-4.7-4.6
			c-0.1-0.2-0.9,2.2-2.7,2.3C63.8,42.7,66.5,40,66,39C64.3,35.4,67.6,25,67.6,25z"/>
		<path d="M94.8,57.3c0,0,0.2,2.6,0.2,3.3c0,0.7,0.6,2.8,0.7,3.9c-0.8,1.3-4.3,4.4-10.5,5.6c-6.2,1.3-14.4-8.5-14.4-8.5
			c0.3-1,0.9-3.7,1.4-5.1c0.1-0.2,0.2-0.5,0.3-0.6C72.9,54.9,94.8,57.3,94.8,57.3z"/>
		<path class="st4" d="M93.2,57.5c0,1.8,0.3,3.1,0.5,4.3c0.4,2.1,0.9,3.5,0.9,4.8c0,4.2-5.5,3.5-10.1,3.6
			c-6.2,1.3-11.4-8.5-11.4-8.5c0.4-1.7,0.7-3.5,1.4-5.1h0c0.1-0.9,0.2-1.9,0.3-2.4c8.8,0,15,0.5,18.6,0.9
			C93.4,55.8,93.3,57.2,93.2,57.5L93.2,57.5z"/>
		<path d="M86.3,66.8c0,0-3.8-8.5-15.3-5.9c-2.8,7.7-6.4,16.6-4.1,26.1c-2.4,3.2-5.1,5.1-5.1,11s0.3,7,0.3,7l8.4,0.5
			c0,0,2.8-3.5,3.8-7.3c0.3-1.1,0.5-3.1,0.4-5.3c0.3-0.4,1.5-1.5,1.6-3.4c0,0,4.1-2.2,6.5-7.4C85.1,77.2,84.5,73.1,86.3,66.8z"/>
		<path class="st4" d="M86.3,66.8c-0.2-0.8-3.1-8.6-13.7-6.2c-6.3,16.7-4,23.6-3,26.6c-4.2,5.4-6.2,6.5-5.3,17.5l5.6,0
			c2.6-4.1,3.2-5.6,3.3-11c0-0.2-0.8,0.4-1.4,1.2c0.4-2.3,1.6-2.7,2.6-4c0.4-0.6,0.8-1.4,0.8-2.6c5-3.4,6.9-7.6,8-12
			C83.9,73.1,85,68.1,86.3,66.8z"/>
		<path d="M68.4,55.2c0,0,2,0,3.6,0.7c1.7,0.6,1.7,0.9,2.3,1.7c0.7,0.8,2.2,1.8,1.9,2.9c-0.2,0.6-0.5,0.7-1,1.2
			c-0.2,0.2-1.8,1.9-2.2,2.2c-0.2,0.2-0.5,0.4-0.7,0.5c-0.2,0.1-0.8,0.6-1.1,0.7c-0.7,0.4-1.2,0.6-2,0.5c0,0-1.8-0.1-2.9-1.3
			c0,0-0.1-0.6,0.2-0.9c0,0-1.5-1.3-1.9-2.2c-0.4-0.9-0.4-2.1-0.2-2.7C64.7,57.8,67.5,55.9,68.4,55.2z"/>
		<path d="M70.3,125.2L70,127c0,0-0.6,0.8-5.5,0.7c-4.9-0.1-6.2-1.6-6.6-2.4l-0.3-1.9c0,0,0.9-1.4,1.2-1.3c1.6,0.1,7,2.3,10.7,2.9
			C69.9,125,70,125.2,70.3,125.2z"/>
		<path d="M80.7,121.5c0,0.8-0.1,0.8-0.1,1.6c0.9,0.7,3,1,7.1,0.9c6-0.2,11.5,1.8,18.3,0.6l0.1-1.3l-0.6-0.1l-23.9-1.9L80.7,121.5z"
			/>
		<path d="M85.9,124.1c0.6,0,1.2,0,1.8,0c3.9-0.1,7.6,0.7,11.5,0.9c2.1-0.1,4.7-0.5,4.4-2.1l-20.4-1.7C82,122.5,83,123.7,85.9,124.1
			z"/>
		<path d="M62.5,93.8c0.7,0.4,5,3,12.1,2.7c-0.1,1.4-0.1,4.1-3.2,8.7c-1.6,2.3-3,6.3-3.2,11.4c0.1,1.2,0.7,2.1-0.2,3.6
			c0.3,0.9,1.4,2.8,2,3.9c0.6,1.1,0.9,2.4-3,2.5c-3.9,0.1-10.1-0.4-9.3-3.4c0.4-1.6,1.6-3.2,1.8-3.9c0.2-0.7,0.1-2.6,1.4-3.9
			c1.1-3.6,0.7-7.1,0.5-10.3C61.1,101.9,61.1,96.5,62.5,93.8z"/>
		<path d="M69.2,35.1c5.1-6.8,0.8-12.3-7.4-10.6c-3.3,0.7-6.6,2.9-6.9,7.1c-1.1,0.2-3.5,0.3-4.8,4.7c-1,3.4-1.4,4.1-3.1,5.8
			c-1.1,1.2,0.1,3.7,0.8,5.5c2.6,6.2,10.9,6.8,16.4,11.5c1.9-0.5,3.8-2.6,4.4-3.9c-4.6-5.6-3.7-7.7-5.5-10.5
			C65.2,43.9,69.8,41.1,69.2,35.1z"/>
		<path class="st4" d="M68.2,34.7c0.3-0.4,0.8-1.3,1-1.7c0.1-0.1,0.9,1.3,0.9,1.2c2-3.2,2.4-7.8,0.2-8.2c-0.5-0.1-1.4-0.3-2.2-0.6
			c-1.4-0.5-2.8-0.5-5.1-0.1c-3.2,0.6-6.3,2.9-6.4,6.2c0,0.2,2.2,0.9,2.9,3.5c-1.1-1.5-2.9-3.2-5.2-1.7c-2.3,1.5-1.1,5-4.3,8.6
			c-1.1,1.2-0.9,2.7,0.2,5.5c1.8,4.6,10.7,7,15.6,11.3c1.1-0.5,2-1.6,2.5-2.5c-3.2-3.4-4.5-6.6-5.5-8.9c-1.1-2.7-2.4-4.2-5-6.2
			c1.3,0.5,2.3,1,2.9,1.4c0.7,0.5,1.6,0.5,2.4,0.2C66.3,41.7,68,37.4,68.2,34.7z"/>
		<path d="M99.5,35.8c-0.2,2.7-2.2,1.3-3.3,0.9c-2.1-0.9-4.3-1.6-6.9-1.6c-2.5,0-5.8,0.2-8.6,1c-3.9,1.1-5,1-6.7,0.1
			c-1.7-0.9-4.8-3.2-4.8-3.2s-0.1,0.7,0.6,1.7c0.9,1.1,3,2.6,5.8,3.5c1.3,0.5,2.5,0.2,3.7-0.1c6.4-1.6,13.2-1.9,18.9,1.6
			c0.3,0.2,1.3-0.3,1.7-1C100.6,37.7,99.5,35.8,99.5,35.8z"/>
		<path d="M66.7,63.2c0.6,0.3,1.3,0.6,2.1,1.2c0,0-0.6,0-0.9-0.3C67.6,63.9,66.8,63.3,66.7,63.2C66.7,63.3,66.7,63.3,66.7,63.2z"/>
		<path class="st4" d="M87.5,6.1c-0.2-0.7-1.8-1.8-5.5-1.8c-4,0-5.1,1.2-5.2,1.8c0,0.2-0.3,2.5-0.3,3.5c0,0,0,1.2,0.1,2.9
			c0.1,1.2,0.3,1.8,0.5,3.3c0.2,1.6,0.6,2.6,1.4,3.9c0.3,0.2,0.7,0.4,1,0.5c1.4,0.3,4,0.3,5.3,0c0.8-0.2,1.8-1.6,2-2.8
			c0.3-1.5,0.6-2.6,0.6-3.6c0.1-0.9,0.2-3,0.3-3.6C88,8.8,87.6,6.3,87.5,6.1z"/>
		<path d="M80,95.2c0,0,3.8,1.7,13.2,0.2c0,0-2.7,13.4-1.4,20c0,0,1.2,1.7,10.3,5.1c0,0,4.1,1,3.9,3c0,0,0.1,0.4-4.7,0.3
			c-4.9-0.1-9.5-1-12.8-1c-3.2,0-6.7,0.1-7.3-0.8c-0.6-0.9,0.1-3.1,1.1-4.4c1-1.3,0.7-2.3,0.7-4.8C82.7,106.4,77.8,99.7,80,95.2z"/>
		<path class="st3" d="M79.2,96.4c-0.5,0.7,0.1,3.4,0.8,6.1c0.7,2.7,2.3,4.3,2.7,8.6c0.4,4.3,0.4,4.9-0.8,7.4
			c-1.2,2.6-1.6,4.8,2.7,4.9c4.3,0.1,6.6-0.1,10.9,0.6c4.3,0.6,5.8,0.9,8.2,0.5c2.4-0.4,2.9-1.2,1.8-1.9c-1-0.7-5.2-1.5-7-2.9
			c-1.7-1.3-6.6-3.5-6.7-4c-0.2-2-0.3-9,0.1-11.3c0.4-2.3,0.9-5.6,1-6.5c0.2-0.9,0.9-1.8-0.4-1.5c-1.2,0.3-5.8,1-9.3,0.7
			C79.9,96.8,79.4,96.1,79.2,96.4z"/>
		<path class="st5" d="M81.7,118.6c1.2,0.6,3,1,4.4,1c0,0-0.5,2.4,0.3,3.8s-5.7-0.2-5.7-0.2l-0.3-4.4L81.7,118.6z"/>
		<path class="st5" d="M100.7,124.8c1.2-0.4,2-1.7,1-2.9s-1.8-1.5-0.6-1.5c1.3-0.1,5.3,2.6,5.3,2.6l-1,1.6L100.7,124.8z"/>
		<path class="st5" d="M79,99.2c1.7,0.6,4.2,0.8,6.3,0.7s5.4-0.4,7.5-1.1c2.1-0.7,1.2,0.8,1.2,0.8l-1.2,1.1c0,0-2.8,1.1-7.2,1
			c-5.2-0.1-6.8-0.7-6.8-0.7L79,99.2z"/>
		<path class="st5" d="M79.1,102.8c1.7,0.6,4.2,0.8,6.3,0.7c2.2-0.1,5.1-0.1,7.1-0.8c0.8-0.3,0.4,0.9,0.4,0.9l-0.4,0.6
			c0,0-2.8,1-7.2,0.9c-5.2-0.1-6.2-0.5-6.2-0.5L79.1,102.8z"/>
		<path d="M74.4,52.3c0,0.5,5.6,3.3,8.7,3.9c3.1,0.6,9.6,0,10.6-0.2l-0.1,1c0,0-7.7,1.1-13.6-0.4c-5.9-1.6-5.3-2-5.3-2L74.4,52.3z"
			/>
		<g>
			<path class="st4" d="M62.3,113.7c0.8,0.4,3.9,1.2,6,0.8c0.3-0.1,0-5,0.8-7.2c1.1-3.1,3-5.6,3.9-11.1c-3-0.3-6.5-1.1-8.3-1.7
				C62.4,101.6,63.2,107.7,62.3,113.7z"/>
			<path class="st4" d="M67.2,118.2c0.5,0.1,0.8,0.7,1,0.4c0.3-0.7-0.5-1.8-0.6-2.8c0-0.1,0,0,0-0.1c-0.6-0.6-5-0.7-4.7-0.3
				c-0.5,1-1.3,0.8-1.6,2.6c-0.2,0.9,1,0.1,2.1,0.1c-1.9,1.3-4.2,3-4.5,4.4c-0.5,2,0.3,2.6,2.4,3.7c1.8,0.4,4.1,0.5,5.8,0.4
				c1.9-0.3,2.3-1.3,1.7-2.6C67.9,122.1,67.4,119.6,67.2,118.2z"/>
		</g>
		<path d="M68,24.7c2.3,1.4,5.7,1,6.9,0.9c0.3,0,3.2-0.5,3.3-0.5c0.3,0.1,0.3,0.3,0.3,0.3s-1.1,0.6-3.5,0.8c-2.3,0.2-5,0-6.6-0.7
			C66.6,24.7,68,24.7,68,24.7z"/>
		<path d="M92.4,26.1c0.4,0.3,3.3,1.3,4.5,2.6c1.1,1.2,0.5,1.1,0.3,0.8c-0.3-0.3-2.5-1.9-3.4-2.2c-0.8-0.3-1.9-1-1.9-1.1
			C91.8,26,92.4,26.1,92.4,26.1z"/>
		<path class="st4" d="M67.6,56c2.1-0.1,4.2,0.3,5.6,1.8c0.7,0.7,1.9,1.5,1.7,2.2c0,0.2-0.5,0.8-0.8,1.2c-0.2,0.3-0.8,0.9-1.1,1.2
			c-0.3,0.2-1.3,1-1.5,1.2c-0.2,0.1-0.5,0.5-0.7,0.6c-0.7,0.4-1.5,0.1-2.3-0.3c-0.7-0.3,0.2-0.4-0.6-1c-1.9-1.3-3-2.3-2.2-5
			C65.8,57.3,66.6,56.8,67.6,56z"/>
	</g>
	<path class="st5" d="M49.2,39.5c-6.4,2.6-23,10.8-27.6,13.3c0,0,0,0,0,0c3.9,2.5,5.7,8.3,6.3,14.3c0.1,0.6,0.1,1.1,0.2,1.6
		c0.1,0.5,0.2,0.9,0.2,1.1c0,0.1,0,0.2,0.1,0.3c4.2-11.6,19.4-23.8,20-24.8c0.3-0.4-0.4-2.3,0.7-4.1C50.3,39,52.9,38,49.2,39.5z"/>
	<path class="st5" d="M64.6,93.8c3.3-6.6,3.4-13,3.3-20.4c0-3.1,2.2-7.5,1.1-6.2C64.7,72,53.8,81,46,81.5
		C57,81.3,61.4,86.7,64.6,93.8z"/>
	<path d="M15.2,58.9c4.1-2.9,25.3-14.2,30.5-15.9c5.1-1.6,3.5-3.6,3.5-3.6s-20.8,8.9-33.1,16.6"/>
	<path class="st5" d="M75.7,38.1c-1.7-0.7-2.9,1.3-2.5,3.1c0.4,1.9,4.3,3.9,4.1,10.8C77.2,57.7,76,60,76,60l-2.8-3.5
		c0,0-0.4-7.8-1.3-8.9c-0.9-1.2-3.9-3.2-5-4.3c-1.2-1.1,1.3-2.6,1.1-4.5c-0.2-2,1.3-5.8,1.3-5.8L75.7,38.1z"/>
	<path class="st5" d="M85.8,68.8c-0.2,5.4,1.1,13.4,1.6,17.2c0.5,3.8,1.2,4.1,0,5.8c-1.1,1.7-2.7,4.4-2.7,4.4l-5-0.4c0,0,4-5,4.2-6
		c0.2-1-2-8.1-2-8.1L85.8,68.8z"/>
	<path class="st5" d="M76.2,18.4c1,2.2,2.2,3.2,4.1,3.9c1.2,0.4,5.7,1,7.5-1c0.8-0.9,0.3-3.4,0.3-3.4L84,21.1l-5.6-1l-0.6-1.7
		L76.2,18.4z"/>
	<path class="st6" d="M76.6,23.4c1.9,1.2,6.5,2.3,7.8,2.6c1.3,0.3,3.4-1.4,4.4-1.8c1.1-0.5,2.9-0.8,5.1,1.2c0.2,0.2-0.5,1.1-0.5,1.1
		c-0.1-0.1-0.5-0.1-1.1-0.4c-0.6-0.3-1.1-0.5-1.9-0.4c-3.6,0.4-4.2,1.7-7.3,0.9c-3.1-0.7-4-1.3-7-1.2"/>
	<path class="st3" d="M76,23.6c2.4,1,7,2.1,8.3,2.4c1.3,0.3,3.4-1,4.4-1.6c1.8-1.1,4.1-0.2,5.2,1c0.7,0.8,1,1.3,1,1.5
		c0,0.3-0.8,0-0.8,0c-0.5-0.2-1.1-0.3-1.5-0.5c-0.6-0.3-1.2-0.7-2-0.6c-3.6,0.4-4.3,1.6-7.4,0.9c-3.1-0.7-3.9-1.4-7.2-1.2"/>
	<path d="M64.8,90.8c-0.1-0.2,0.1-0.3,0-0.3c-0.9,0-2.2-0.7-3-1.7c-3.1-4.5-7.6-7.4-15.8-7.2c-12.3,0.3-17.2-4.8-18.1-14.4
		c-0.5-5.2-2-10.4-4.9-13.2L21.2,55c3.3,2.9,4.4,7.6,5.1,13.9c1.1,9.6,8.9,14.1,18,14.3c9.4,0.1,12.8,2.1,16.4,6.8
		c1.2,1.5,2.5,2,3.4,2.2L64.8,90.8z"/>
	<path class="st5" d="M98.2,44.5c0.2,1.1,0.8,3.2,1.9,4.2c0.5,0.5,0.6,0.6,0.2,0.6c-0.5,0-3.6-0.2-3.6-0.2l-0.9-1.5L98.2,44.5z"/>
</g>
</svg>
