<?xml version="1.0" encoding="utf-8"?>
<!-- Generator: Adobe Illustrator 21.1.0, SVG Export Plug-In . SVG Version: 6.00 Build 0)  -->
<svg version="1.1" id="Layer_2" xmlns="http://www.w3.org/2000/svg" xmlns:xlink="http://www.w3.org/1999/xlink" x="0px" y="0px"
	 viewBox="0 0 128 128" style="enable-background:new 0 0 128 128;" xml:space="preserve">
<polygon points="68.1,124.6 65.2,114.5 65.2,124.2 "/>
<polygon points="82.4,124.6 86.6,117.3 84.5,124.6 "/>
<polygon points="87.6,122.7 90.3,120.1 89.3,123.2 "/>
<polygon points="62.5,122.5 58.8,118.8 60.7,123.2 "/>
<polygon points="46.1,125.5 49.4,117.9 48.7,126 "/>
<polygon points="50.8,123.8 53,120.9 52.4,124.2 "/>
<polygon points="34.4,127 30.4,116.7 31.4,126.4 "/>
<polygon points="29.1,124.6 25.5,120.9 27.3,125 "/>
<path d="M32.4,44.8c4,10,9.4,59.2,9.4,59.2c-2.4,3-3.5,5.7-4,10.5c-0.4-5.2-1.3-9.7-3.1-15C34.7,99.5,33.5,54.2,32.4,44.8z"/>
<path d="M35.8,114c-0.9,0-1.7-0.8-1.7-1.7c0-0.9,0.8-1.7,1.7-1.7c0.5,0,0.9,0.2,1.2,0.5c-0.9-5.9-3.9-16.7-13.5-24.2
	c11.7,14.6,9.1,35.7,9.1,35.7l1,2.8h3.8v-10c0,0,0-0.8-0.1-2.2C37,113.6,36.4,114,35.8,114z"/>
<path d="M53,102.1c-8.2-2.2-12.2,2.8-14,8.8c0.3-0.1,0.5-0.2,0.8-0.2c0.9,0,1.7,0.8,1.7,1.7c0,0.9-0.8,1.7-1.7,1.7
	c-0.6,0-1.2-0.3-1.4-0.8c-1.4,6.5-0.9,13.3-0.9,13.3l3.9-0.8L44,125C44,125,39.7,101.5,53,102.1z"/>
<path d="M74.3,122.8c0,0-0.1-8.1-2-17.7c-0.3,0.3-0.8,0.5-1.3,0.5c-1,0-1.9-0.8-1.9-1.9c0-1,0.8-1.9,1.9-1.9c0.2,0,0.4,0,0.7,0.1
	C68.5,88.6,61.5,74,46.5,76.2c23.5,3.4,19.9,42.1,19.9,42.1l1.5,5c1.8,0.3,4.8,1,5.7,1C74.4,124.2,74.3,122.8,74.3,122.8z"/>
<path d="M94.8,59.1c-11.4,6.7-17.7,27.8-20.1,43.3c0.2-0.1,0.5-0.2,0.8-0.2c1,0,1.9,0.8,1.9,1.9c0,1-0.8,1.9-1.9,1.9
	c-0.5,0-0.9-0.2-1.2-0.5c-0.3,2.4-0.6,4.7-0.7,6.6c0,7.4,0.8,10.8,0.8,10.8c2.7,0.5,5.3,0.5,7.8,0C82.1,122.8,77.6,78.6,94.8,59.1z"
	/>
<path d="M114.5,9.2C90.6-22.4,68.1,44.9,68.6,89.5c2.9,5.7,4.8,17,4.8,17s1-12.6,4-19.4C79.1,58.1,91.2-18.8,114.5,9.2z"/>
</svg>
