<?xml version="1.0" encoding="utf-8"?>
<!-- Generator: Adobe Illustrator 21.1.0, SVG Export Plug-In . SVG Version: 6.00 Build 0)  -->
<svg version="1.1" id="Layer_1" xmlns="http://www.w3.org/2000/svg" xmlns:xlink="http://www.w3.org/1999/xlink" x="0px" y="0px"
	 viewBox="0 0 128 128" style="enable-background:new 0 0 128 128;" xml:space="preserve">
<path id="original" d="M40.7,115.3c47.6,0,73.7-39.5,73.7-73.7c0-1.1,0-2.2-0.1-3.3c5.1-3.7,9.4-8.2,12.9-13.4
	c-4.7,2.1-9.7,3.5-14.9,4.1c5.4-3.2,9.4-8.3,11.4-14.3c-5.1,3-10.6,5.1-16.5,6.3C97.4,10.6,81,10.1,70.6,19.9
	c-6.7,6.3-9.6,15.8-7.5,24.7c-20.8-1-40.2-10.9-53.4-27.1c-6.9,11.8-3.4,27,8,34.6C13.6,52,9.6,50.8,6,48.8c0,0.1,0,0.2,0,0.3
	C6,61.4,14.7,72,26.7,74.5c-3.8,1-7.8,1.2-11.7,0.4c3.4,10.6,13.1,17.8,24.2,18c-9,7.2-20.4,11.1-32,11.1c-2.1,0-4.1-0.1-6.2-0.4
	C12.8,111.2,26.6,115.3,40.7,115.3"/>
</svg>
